<svg width="32" height="32" viewBox="0 0 32 32" fill="none" xmlns="http://www.w3.org/2000/svg">
  <!-- Background circle -->
  <circle cx="16" cy="16" r="15" fill="#0C121D" stroke="#fec544" stroke-width="1.5"/>
  
  <!-- Network nodes -->
  <!-- Center node -->
  <circle cx="16" cy="16" r="3" fill="#fec544"/>
  
  <!-- Top nodes -->
  <circle cx="16" cy="8" r="2.5" fill="#7a99d9"/>
  <circle cx="10" cy="10" r="2" fill="#fec544" opacity="0.8"/>
  <circle cx="22" cy="10" r="2" fill="#7a99d9" opacity="0.8"/>
  
  <!-- Bottom nodes -->
  <circle cx="16" cy="24" r="2.5" fill="#7a99d9"/>
  <circle cx="10" cy="22" r="2" fill="#fec544" opacity="0.8"/>
  <circle cx="22" cy="22" r="2" fill="#7a99d9" opacity="0.8"/>
  
  <!-- Side nodes -->
  <circle cx="8" cy="16" r="2" fill="#fec544" opacity="0.7"/>
  <circle cx="24" cy="16" r="2" fill="#7a99d9" opacity="0.7"/>
  
  <!-- Connection lines -->
  <!-- From center to top -->
  <line x1="16" y1="13" x2="16" y2="10.5" stroke="#fec544" stroke-width="1" opacity="0.6"/>
  <line x1="13.5" y1="13.5" x2="11.5" y2="11.5" stroke="#fec544" stroke-width="0.8" opacity="0.5"/>
  <line x1="18.5" y1="13.5" x2="20.5" y2="11.5" stroke="#7a99d9" stroke-width="0.8" opacity="0.5"/>
  
  <!-- From center to bottom -->
  <line x1="16" y1="19" x2="16" y2="21.5" stroke="#7a99d9" stroke-width="1" opacity="0.6"/>
  <line x1="13.5" y1="18.5" x2="11.5" y2="20.5" stroke="#fec544" stroke-width="0.8" opacity="0.5"/>
  <line x1="18.5" y1="18.5" x2="20.5" y2="20.5" stroke="#7a99d9" stroke-width="0.8" opacity="0.5"/>
  
  <!-- From center to sides -->
  <line x1="13" y1="16" x2="10" y2="16" stroke="#fec544" stroke-width="0.8" opacity="0.5"/>
  <line x1="19" y1="16" x2="22" y2="16" stroke="#7a99d9" stroke-width="0.8" opacity="0.5"/>
  
  <!-- Inter-node connections -->
  <line x1="10" y1="10" x2="8" y2="16" stroke="#fec544" stroke-width="0.6" opacity="0.4"/>
  <line x1="22" y1="10" x2="24" y2="16" stroke="#7a99d9" stroke-width="0.6" opacity="0.4"/>
  <line x1="10" y1="22" x2="8" y2="16" stroke="#fec544" stroke-width="0.6" opacity="0.4"/>
  <line x1="22" y1="22" x2="24" y2="16" stroke="#7a99d9" stroke-width="0.6" opacity="0.4"/>
</svg>
